REM DIRINDEX 1\3,1\2\4,1\2\5,1\2\6
REM DIRNAME folder01,folder02,folder03,folder04,folder05,folder06
TITLE ""
FILE "087.mp3" MP3
  TRACK 01 AUDIO
    TITLE "4:cjc137_3573"
    INDEX 01 00:00:00
  TRACK 02 AUDIO
    TITLE "0:"
    INDEX 01 00:01:36
  TRACK 03 AUDIO
    TITLE "6:cjc137_3574"
    INDEX 01 00:01:46
  TRACK 04 AUDIO
    TITLE "0:"
    INDEX 01 00:02:47
  TRACK 05 AUDIO
    TITLE "5:cjc137_3575"
    INDEX 01 00:02:55
  TRACK 06 AUDIO
    TITLE "0:"
    INDEX 01 00:04:13
  TRACK 07 AUDIO
    TITLE "4:cjc137_3576"
    INDEX 01 00:05:24
  TRACK 08 AUDIO
    TITLE "0:"
    INDEX 01 00:06:41
  TRACK 09 AUDIO
    TITLE "6:cjc137_3577"
    INDEX 01 00:06:47
  TRACK 10 AUDIO
    TITLE "0:"
    INDEX 01 00:07:51
  TRACK 11 AUDIO
    TITLE "5:cjc137_3578"
    INDEX 01 00:07:54
  TRACK 12 AUDIO
    TITLE "0:"
    INDEX 01 00:08:73
  TRACK 13 AUDIO
    TITLE "4:cjc137_3579"
    INDEX 01 00:10:04
  TRACK 14 AUDIO
    TITLE "0:"
    INDEX 01 00:11:07
  TRACK 15 AUDIO
    TITLE "6:cjc137_3580"
    INDEX 01 00:11:15
  TRACK 16 AUDIO
    TITLE "0:"
    INDEX 01 00:12:36
  TRACK 17 AUDIO
    TITLE "5:cjc137_3581"
    INDEX 01 00:12:44
  TRACK 18 AUDIO
    TITLE "0:"
    INDEX 01 00:13:47
  TRACK 19 AUDIO
    TITLE "4:cjc137_3582"
    INDEX 01 00:14:58
  TRACK 20 AUDIO
    TITLE "0:"
    INDEX 01 00:15:68
  TRACK 21 AUDIO
    TITLE "6:cjc137_3583"
    INDEX 01 00:16:00
  TRACK 22 AUDIO
    TITLE "0:"
    INDEX 01 00:17:21
  TRACK 23 AUDIO
    TITLE "5:cjc137_3584"
    INDEX 01 00:17:27
  TRACK 24 AUDIO
    TITLE "0:"
    INDEX 01 00:18:39
  TRACK 25 AUDIO
    TITLE "4:cjc137_3585"
    INDEX 01 00:19:50
  TRACK 26 AUDIO
    TITLE "0:"
    INDEX 01 00:20:65
  TRACK 27 AUDIO
    TITLE "6:cjc137_3586"
    INDEX 01 00:21:04
  TRACK 28 AUDIO
    TITLE "0:"
    INDEX 01 00:22:21
  TRACK 29 AUDIO
    TITLE "5:cjc137_3587"
    INDEX 01 00:22:29
  TRACK 30 AUDIO
    TITLE "0:"
    INDEX 01 00:23:44
  TRACK 31 AUDIO
    TITLE "4:cjc137_3588"
    INDEX 01 00:24:59
  TRACK 32 AUDIO
    TITLE "0:"
    INDEX 01 00:26:13
  TRACK 33 AUDIO
    TITLE "6:cjc137_3589"
    INDEX 01 00:26:24
  TRACK 34 AUDIO
    TITLE "0:"
    INDEX 01 00:27:28
  TRACK 35 AUDIO
    TITLE "5:cjc137_3590"
    INDEX 01 00:27:34
  TRACK 36 AUDIO
    TITLE "0:"
    INDEX 01 00:28:64
  TRACK 37 AUDIO
    TITLE "4:cjc137_3591"
    INDEX 01 00:30:03
  TRACK 38 AUDIO
    TITLE "0:"
    INDEX 01 00:31:02
  TRACK 39 AUDIO
    TITLE "6:cjc137_3592"
    INDEX 01 00:31:12
  TRACK 40 AUDIO
    TITLE "0:"
    INDEX 01 00:32:19
  TRACK 41 AUDIO
    TITLE "5:cjc137_3593"
    INDEX 01 00:32:25
  TRACK 42 AUDIO
    TITLE "0:"
    INDEX 01 00:33:24
  TRACK 43 AUDIO
    TITLE "4:cjc137_3594"
    INDEX 01 00:34:36
  TRACK 44 AUDIO
    TITLE "0:"
    INDEX 01 00:35:59
  TRACK 45 AUDIO
    TITLE "6:cjc137_3595"
    INDEX 01 00:35:64
  TRACK 46 AUDIO
    TITLE "0:"
    INDEX 01 00:37:08
  TRACK 47 AUDIO
    TITLE "5:cjc137_3596"
    INDEX 01 00:37:14
  TRACK 48 AUDIO
    TITLE "0:"
    INDEX 01 00:38:37
  TRACK 49 AUDIO
    TITLE "4:cjc137_3597"
    INDEX 01 00:39:45
  TRACK 50 AUDIO
    TITLE "0:"
    INDEX 01 00:40:34
  TRACK 51 AUDIO
    TITLE "6:cjc137_3598"
    INDEX 01 00:40:42
  TRACK 52 AUDIO
    TITLE "0:"
    INDEX 01 00:41:40
  TRACK 53 AUDIO
    TITLE "5:cjc137_3599"
    INDEX 01 00:41:45
  TRACK 54 AUDIO
    TITLE "0:"
    INDEX 01 00:42:33
  TRACK 55 AUDIO
    TITLE "4:cjc137_3600"
    INDEX 01 00:43:44
  TRACK 56 AUDIO
    TITLE "0:"
    INDEX 01 00:44:38
  TRACK 57 AUDIO
    TITLE "6:cjc137_3601"
    INDEX 01 00:44:48
  TRACK 58 AUDIO
    TITLE "0:"
    INDEX 01 00:45:65
  TRACK 59 AUDIO
    TITLE "5:cjc137_3602"
    INDEX 01 00:45:73
  TRACK 60 AUDIO
    TITLE "0:"
    INDEX 01 00:46:66
  TRACK 61 AUDIO
    TITLE "4:cjc137_3603"
    INDEX 01 00:48:02
  TRACK 62 AUDIO
    TITLE "0:"
    INDEX 01 00:49:06
  TRACK 63 AUDIO
    TITLE "6:cjc137_3604"
    INDEX 01 00:49:14
  TRACK 64 AUDIO
    TITLE "0:"
    INDEX 01 00:50:05
  TRACK 65 AUDIO
    TITLE "5:cjc137_3605"
    INDEX 01 00:50:09
  TRACK 66 AUDIO
    TITLE "0:"
    INDEX 01 00:51:16
  TRACK 67 AUDIO
    TITLE "4:cjc137_3606"
    INDEX 01 00:52:26
  TRACK 68 AUDIO
    TITLE "0:"
    INDEX 01 00:53:33
  TRACK 69 AUDIO
    TITLE "6:cjc137_3607"
    INDEX 01 00:53:41
  TRACK 70 AUDIO
    TITLE "0:"
    INDEX 01 00:54:56
  TRACK 71 AUDIO
    TITLE "5:cjc137_3608"
    INDEX 01 00:54:66
  TRACK 72 AUDIO
    TITLE "0:"
    INDEX 01 00:55:73
  TRACK 73 AUDIO
    TITLE "4:cjc137_3609"
    INDEX 01 00:57:09
  TRACK 74 AUDIO
    TITLE "0:"
    INDEX 01 00:58:32
  TRACK 75 AUDIO
    TITLE "6:cjc137_3610"
    INDEX 01 00:58:38
  TRACK 76 AUDIO
    TITLE "0:"
    INDEX 01 00:59:34
  TRACK 77 AUDIO
    TITLE "5:cjc137_3611"
    INDEX 01 00:59:41
  TRACK 78 AUDIO
    TITLE "0:"
    INDEX 01 01:00:64
  TRACK 79 AUDIO
    TITLE "4:cjc137_3612"
    INDEX 01 01:01:72
  TRACK 80 AUDIO
    TITLE "0:"
    INDEX 01 01:03:02
  TRACK 81 AUDIO
    TITLE "6:cjc137_3613"
    INDEX 01 01:03:10
  TRACK 82 AUDIO
    TITLE "0:"
    INDEX 01 01:04:19
  TRACK 83 AUDIO
    TITLE "5:cjc137_3614"
    INDEX 01 01:04:23
  TRACK 84 AUDIO
    TITLE "0:"
    INDEX 01 01:05:32
